<svg width="80" height="80" viewBox="0 0 80 80" fill="none" xmlns="http://www.w3.org/2000/svg">
<g clip-path="url(#clip0_123_9)">
<path d="M0 0H80V80H0V0Z" fill="#F0DB4F"/>
<path d="M73.4525 60.9201C72.8669 57.27 70.4867 54.2053 63.4373 51.346C60.9886 50.2205 58.2586 49.4145 57.4449 47.5589C57.1559 46.4791 57.1179 45.8707 57.3004 45.2167C57.8251 43.095 60.3574 42.4335 62.365 43.0418C63.6578 43.4753 64.8821 44.4716 65.6198 46.0608C69.0722 43.8252 69.0646 43.8403 71.4753 42.3043C70.5932 40.9354 70.1217 40.3042 69.5437 39.7187C67.4677 37.3993 64.6388 36.2054 60.1141 36.2966C59.3308 36.3955 58.54 36.5019 57.7567 36.6008C55.4982 37.1712 53.346 38.3575 52.0837 39.9468C48.2966 44.2434 49.3764 51.7642 53.9848 54.8594C58.5247 58.2662 65.1939 59.0419 66.0456 62.2282C66.8745 66.1293 63.1788 67.3916 59.5057 66.943C56.7985 66.3803 55.2929 65.0039 53.6654 62.502C50.6693 64.2358 50.6693 64.2358 47.5894 66.0077C48.3195 67.6046 49.0875 68.3271 50.3119 69.7111C56.1065 75.5894 70.6084 75.3004 73.2092 66.4031C73.3156 66.0988 74.0153 64.0608 73.4525 60.9201ZM43.4905 36.7681H36.0076C36.0076 43.2319 35.9773 49.6502 35.9773 56.1141C35.9773 60.2281 36.1902 64 35.521 65.1559C34.4259 67.4296 31.5894 67.1483 30.2967 66.7071C28.9811 66.0607 28.3119 65.1406 27.5362 63.8403C27.3233 63.4677 27.1636 63.1787 27.1103 63.1559C25.0799 64.3954 23.057 65.6425 21.0266 66.8821C22.0381 68.9582 23.5285 70.7604 25.4373 71.9315C28.289 73.6425 32.1217 74.1672 36.1294 73.2471C38.7377 72.4866 40.9886 70.9125 42.1673 68.5171C43.8707 65.3764 43.5057 61.5741 43.4905 57.3688C43.5285 50.5095 43.4905 43.6502 43.4905 36.7681Z" fill="#323330"/>
</g>
<defs>
<clipPath id="clip0_123_9">
<rect width="80" height="80" fill="white"/>
</clipPath>
</defs>
</svg>
