<svg width="51" height="51" viewBox="0 0 51 51" fill="none" xmlns="http://www.w3.org/2000/svg">
<path d="M15.0342 0.862732H10.0342V5.86273H15.0342V0.862732Z" fill="white"/>
<path d="M15.0342 45.8627H10.0342V50.8627H15.0342V45.8627Z" fill="white"/>
<path d="M10.0342 5.86273H5.03424V10.8627H10.0342V5.86273Z" fill="white"/>
<path d="M10.0342 10.8627H5.03424V15.8627H10.0342V10.8627Z" fill="white"/>
<path d="M10.0342 15.8627H5.03424V20.8627H10.0342V15.8627Z" fill="white"/>
<path d="M10.0342 30.8627H5.03424V35.8627H10.0342V30.8627Z" fill="white"/>
<path d="M10.0342 35.8627H5.03424V40.8627H10.0342V35.8627Z" fill="white"/>
<path d="M10.0342 40.8627H5.03424V45.8627H10.0342V40.8627Z" fill="white"/>
<path d="M5.03424 20.8627H0.0342407V25.8627H5.03424V20.8627Z" fill="white"/>
<path d="M5.03424 25.8627H0.0342407V30.8627H5.03424V25.8627Z" fill="white"/>
<path d="M40.0342 45.8627H35.0342V50.8627H40.0342V45.8627Z" fill="white"/>
<path d="M40.0342 0.862732H35.0342V5.86273H40.0342V0.862732Z" fill="white"/>
<path d="M45.0342 40.8627H40.0342V45.8627H45.0342V40.8627Z" fill="white"/>
<path d="M45.0342 35.8627H40.0342V40.8627H45.0342V35.8627Z" fill="white"/>
<path d="M45.0342 30.8627H40.0342V35.8627H45.0342V30.8627Z" fill="white"/>
<path d="M45.0342 15.8627H40.0342V20.8627H45.0342V15.8627Z" fill="white"/>
<path d="M45.0342 10.8627H40.0342V15.8627H45.0342V10.8627Z" fill="white"/>
<path d="M45.0342 5.86273H40.0342V10.8627H45.0342V5.86273Z" fill="white"/>
<path d="M50.0342 25.8627H45.0342V30.8627H50.0342V25.8627Z" fill="white"/>
<path d="M50.0342 20.8627H45.0342V25.8627H50.0342V20.8627Z" fill="white"/>
</svg>
